<svg xmlns="http://www.w3.org/2000/svg"
  viewBox="0 0 100 100" enable-background="new 0 0 100 100" preserveAspectRatio="xMaxYMid meet">
  <defs>
    <filter id="shadow" x="0" y="0" width="150%" height="150%">
      <feOffset result="offOut" in="SourceAlpha" dx="0.5" dy="0.5" />
      <feGaussianBlur result="blurOut" in="offOut" stdDeviation="0.5" />
      <feBlend in="SourceGraphic" in2="blurOut" mode="normal" />
    </filter>
  </defs>
  <g style="text-align:center;">    
    <rect x="0" y="0" height="98" width="98"
      rx="5" ry="5" 
      stroke="none"
      fill="#0779AF" filter="url(#shadow)"/>
      <path fill="#fff" transform="scale(4)" d="M15.07,11.25L14.17,12.17C13.45,12.89 13,13.5 13,15H11V14.5C11,13.39 11.45,12.39 12.17,11.67L13.41,10.41C13.78,10.05 14,9.55 14,9C14,7.89 13.1,7 12,7A2,2 0 0,0 10,9H8A4,4 0 0,1 12,5A4,4 0 0,1 16,9C16,9.88 15.64,10.67 15.07,11.25M13,19H11V17H13M12,2A10,10 0 0,0 2,12A10,10 0 0,0 12,22A10,10 0 0,0 22,12C22,6.47 17.5,2 12,2Z" />
      
    </g>
  </svg>